<?xml version="1.0" encoding="UTF-8"?>
<svg id="Layer_1" xmlns="http://www.w3.org/2000/svg" version="1.1" xmlns:xlink="http://www.w3.org/1999/xlink" viewBox="0 0 1092.52 1000">
  <!-- Generator: Adobe Illustrator 29.0.1, SVG Export Plug-In . SVG Version: 2.1.0 Build 192)  -->
  <defs>
    <style>
      .st0 {
        fill: url(#linear-gradient2);
      }

      .st1 {
        fill: #fff;
      }

      .st2 {
        fill: url(#linear-gradient1);
      }

      .st3 {
        fill: none;
      }

      .st4 {
        fill: #5c9743;
      }

      .st5 {
        fill: url(#linear-gradient4);
      }

      .st6 {
        fill: #003410;
      }

      .st7 {
        fill: #faf7f0;
      }

      .st8 {
        fill: url(#linear-gradient5);
      }

      .st9 {
        fill: url(#linear-gradient3);
      }

      .st10 {
        fill: #99cc67;
      }

      .st11 {
        fill: url(#linear-gradient);
      }
    </style>
    <linearGradient id="linear-gradient" x1="454.86" y1="245.43" x2="612.72" y2="245.43" gradientUnits="userSpaceOnUse">
      <stop offset=".3" stop-color="#84b450"/>
      <stop offset="1" stop-color="#003410"/>
    </linearGradient>
    <linearGradient id="linear-gradient1" x1="-425.27" y1="1531.44" x2="-267.41" y2="1531.44" gradientTransform="translate(-1258.04 479.26) rotate(101.86) scale(1 -1)" xlink:href="#linear-gradient"/>
    <linearGradient id="linear-gradient2" x1="267.06" y1="370.93" x2="814.39" y2="370.93" gradientUnits="userSpaceOnUse">
      <stop offset="0" stop-color="#003410"/>
      <stop offset=".06" stop-color="#1c4f1d"/>
      <stop offset=".15" stop-color="#41732f"/>
      <stop offset=".24" stop-color="#5e8f3d"/>
      <stop offset=".33" stop-color="#73a347"/>
      <stop offset=".42" stop-color="#7faf4d"/>
      <stop offset=".5" stop-color="#84b450"/>
      <stop offset=".58" stop-color="#7faf4d"/>
      <stop offset=".67" stop-color="#73a347"/>
      <stop offset=".76" stop-color="#5e8f3d"/>
      <stop offset=".85" stop-color="#41732f"/>
      <stop offset=".94" stop-color="#1c4f1d"/>
      <stop offset="1" stop-color="#003410"/>
    </linearGradient>
    <linearGradient id="linear-gradient3" x1="331.41" y1="402.85" x2="754.2" y2="402.85" xlink:href="#linear-gradient2"/>
    <linearGradient id="linear-gradient4" x1="349.91" y1="499.86" x2="430.35" y2="499.86" gradientUnits="userSpaceOnUse">
      <stop offset="0" stop-color="#003410"/>
      <stop offset=".06" stop-color="#1c4f1d"/>
      <stop offset=".15" stop-color="#41732f"/>
      <stop offset=".24" stop-color="#5e8f3d"/>
      <stop offset=".33" stop-color="#73a347"/>
      <stop offset=".42" stop-color="#7faf4d"/>
      <stop offset=".5" stop-color="#84b450"/>
    </linearGradient>
    <linearGradient id="linear-gradient5" x1="232.49" y1="535.03" x2="853.12" y2="535.03" xlink:href="#linear-gradient2"/>
  </defs>
  <rect class="st7" x=".94" width="1092.52" height="999.33"/>
  <g>
    <path class="st10" d="M728.46,499.81l.4-17.75s-46.35,16.83-64.59,47.76l18.7.29c15.1-22.15,36.91-28.57,45.49-30.3Z"/>
    <g>
      <path class="st1" d="M748.65,302.59s-59.2-2.94-67.82,41.93l-.71,6.11s61.66-21.48,69.12-46.43c0,0,.78-1.25-.59-1.61Z"/>
      <path class="st6" d="M675.27,373.73l-3.05-.81-.41-3.13c-2.77-21.28,1.84-38.56,13.69-51.34,23.71-25.57,67.62-23.52,69.47-23.42l5.03.27-.61,5c-3.76,30.71-14.77,52.44-32.74,64.59-11.47,7.76-23.66,10.14-33.29,10.5-10.19.38-17.52-1.5-18.1-1.65ZM692.38,324.87c-9.24,9.98-13.14,23.55-11.61,40.37,7.02,1.12,24.82,2.53,40.61-8.15,14.61-9.88,23.99-27.59,27.93-52.68-11.73.29-40.64,2.86-56.94,20.46Z"/>
      <path class="st10" d="M678.39,365.08s61.89,27.17,70.85-60.88c0,0-73.59,8.99-70.85,60.88Z"/>
    </g>
    <g>
      <path class="st1" d="M723.95,392.78s-41.7-5.33-50.34,25.33l-.85,4.2s44.82-11.48,51.52-28.38c0,0,.62-.83-.33-1.15Z"/>
      <path class="st6" d="M668.03,438.07l-2.11-.73-.11-2.19c-.75-14.92,3.48-26.65,12.59-34.86,18.22-16.43,49.15-12.57,50.46-12.39l3.54.47-.72,3.44c-4.4,21.1-13.42,35.57-26.81,43-8.55,4.75-17.31,5.72-24.14,5.43-7.23-.3-12.31-2.01-12.71-2.15ZM682.89,405.12c-7.1,6.41-10.63,15.61-10.49,27.37,4.9,1.17,17.41,3.13,29.18-3.4,10.89-6.04,18.53-17.81,22.74-35-8.32-.45-28.91-.27-41.43,11.04Z"/>
      <path class="st10" d="M670.72,432.24s42.24,22.29,53.56-38.31c0,0-52.56,2.16-53.56,38.31Z"/>
    </g>
    <g>
      <polygon class="st10" points="699.93 297.96 722.4 289.82 701.72 270.61 694.23 300.24 699.93 297.96"/>
      <path class="st10" d="M716.02,283.23l-.1-.1-14.45-13.42-2.75,10.92-5.17,20.41,6.56-2.63,11.95-4.34,10.54-3.81.71-.26-7.28-6.77ZM694.93,299.45l4.57-18.06,2.49-9.87,19.51,18.12-10.17,3.69-11.57,4.18-4.83,1.94Z"/>
    </g>
    <path class="st11" d="M592.86,231.69s18.48,1.87,19.86,22.88c0,0-17.64-7.27-19.86-22.88ZM584.04,265.02c19.98,6.64,28.68-9.77,28.68-9.77-15.29-3.82-28.68,9.77-28.68,9.77ZM592.36,248.26c-2.96-20.84-21.53-21.31-21.53-21.31,3.4,15.39,21.53,21.31,21.53,21.31ZM564.55,260.84c20.42,5.11,27.86-11.91,27.86-11.91-15.54-2.66-27.86,11.91-27.86,11.91ZM569.08,242.22c-5.53-20.31-24.01-18.47-24.01-18.47,5.28,14.85,24.01,18.47,24.01,18.47ZM543.05,258.16c20.9,2.54,26.16-15.28,26.16-15.28-15.75-.71-26.16,15.28-26.16,15.28ZM546.51,242.22c-5.53-20.31-24.01-18.47-24.01-18.47,5.28,14.85,24.01,18.47,24.01,18.47ZM520.48,258.16c20.9,2.54,26.16-15.28,26.16-15.28-15.75-.71-26.16,15.28-26.16,15.28ZM523.96,242.41c-8.41-19.3-26.43-14.81-26.43-14.81,7.37,13.93,26.43,14.81,26.43,14.81ZM500.51,261.94c21.04-.51,23.68-18.9,23.68-18.9-15.68,1.58-23.68,18.9-23.68,18.9ZM500.83,243.92c-11.58-17.58-28.57-10.08-28.57-10.08,9.64,12.47,28.57,10.08,28.57,10.08ZM481.05,267.17c20.65-4.1,20.11-22.66,20.11-22.66-15.18,4.23-20.11,22.66-20.11,22.66ZM483.48,248.69c-20.02-6.52-28.62,9.95-28.62,9.95,15.31,3.73,28.62-9.95,28.62-9.95Z"/>
    <path class="st2" d="M304.61,534.09c-20.27-5.67-18.31-24.14-18.31-24.14,14.81,5.38,18.31,24.14,18.31,24.14ZM305.28,534.23s17.85-5.15,15.46-26.06c0,0-16.06,10.31-15.46,26.06ZM286.19,487.41s-3.35,18.27,16.43,25.45c0,0-2.07-18.97-16.43-25.45ZM303.27,513.05s18.19-3.78,17.38-24.82c0,0-16.79,9.07-17.38,24.82ZM288.35,461.55s-5.6,17.71,13.15,27.3c0,0,.3-19.08-13.15-27.3ZM302.11,489.11s18.51-1.5,20.33-22.47c0,0-17.78,6.91-20.33,22.47ZM292.99,439.45s-5.6,17.71,13.15,27.3c0,0,.3-19.08-13.15-27.3ZM306.75,467.02s18.51-1.5,20.33-22.47c0,0-17.78,6.91-20.33,22.47ZM301.89,415.81s-8.1,16.72,9.06,28.91c0,0,3.06-18.83-9.06-28.91ZM311.53,445.08s18.54,1.2,23.36-19.29c0,0-18.6,4.27-23.36,19.29ZM313.19,392.36s-10.83,15.09,3.99,30.03c0,0,6.23-18.03-3.99-30.03ZM317.69,422.84s18.06,4.34,26.31-15.02c0,0-19.05,1.03-26.31,15.02ZM341.03,380.44s-17.88,5.04-15.61,25.96c0,0,16.12-10.21,15.61-25.96Z"/>
    <path class="st10" d="M343.98,370.58c4.81-10.84,10.88-21.05,17.98-30.43,1.72-2.38,3.63-4.63,5.46-6.92,1.92-2.22,3.8-4.48,5.8-6.62,3.94-4.34,8.09-8.49,12.39-12.45,8.57-7.97,17.77-15.2,27.35-21.85,9.61-6.6,19.58-12.69,30.03-17.8-10.26,5.49-19.97,11.92-29.29,18.84-9.29,6.95-18.15,14.47-26.33,22.65-4.11,4.07-8.04,8.31-11.76,12.72-1.9,2.17-3.66,4.46-5.46,6.71-1.71,2.32-3.49,4.58-5.09,6.97-6.61,9.41-12.12,19.55-16.37,30.14l-4.71-1.96Z"/>
    <path class="st0" d="M643.57,228.54c.17.06.31.14.46.22l-8.12,7.54c-.15-.06-.32-.14-.48-.2-.15-.06-.32-.14-.48-.2-9.54-4.04-27.79-10.75-51.91-14.85-32.61-5.54-82.85-7.27-138.35,15.32v17.69l-3.23,1.28c-.68.27-68.43,27.61-118.58,98.69-.93,1.33-1.87,2.65-2.83,3.95-8.07,11.01-48.03,71.22-42.2,175.97l-10.19.56c-6.02-108.22,35.73-171.06,44.16-182.57.93-1.25,1.84-2.53,2.74-3.8,46.25-65.56,105.4-94.55,119.93-100.94v-17.63l3.12-1.31c59.17-24.97,112.9-23.14,147.56-17.21,29.09,4.99,49.67,13.44,57.94,17.26.17.08.32.15.47.23ZM722.24,289.88c-.43-.48-.87-.96-1.3-1.43l-.1-.1c-1.62-1.75-3.23-3.46-4.82-5.11l-.1-.1-14.45-13.42-2.75,10.92c.13.11.26.24.38.37.13.13.27.26.41.38,3.85,3.7,7.82,7.67,11.84,11.94.13.13.26.26.36.38.13.13.24.24.36.37l10.54-3.81c-.11-.13-.23-.26-.34-.38ZM811.67,483.61c-5.18-47.88-20.87-94.45-45.38-134.66-1.85-3.02-3.7-5.98-5.57-8.88-.09-.15-.19-.31-.31-.46-.08-.15-.18-.31-.29-.46l-5.41,10.47c.1.15.2.31.29.47.1.15.19.31.29.46.77,1.21,1.52,2.45,2.28,3.7,23.74,38.94,38.94,84.05,43.95,130.45,2.31,21.4,3.11,37.96,2.4,49.19l10.18.66c.77-11.84-.06-28.98-2.44-50.95Z"/>
    <path class="st9" d="M737.32,413.66c-.06-.19-.14-.4-.22-.59-.06-.19-.14-.38-.2-.57l-8.28,14.02c.06.2.14.41.2.61s.13.41.19.61c8.23,25.38,12.72,52.87,12.72,81.56,0,6.76-.26,13.47-.74,20.08-.28,3.8-.64,7.56-1.08,11.3h12.56c.42-3.74.77-7.51,1.02-11.3.47-6.62.71-13.32.71-20.08,0-33.93-6.02-66.26-16.89-95.65ZM615.59,279.94c-.15-.08-.32-.14-.47-.2-22.56-9.53-46.92-14.72-72.3-14.72-116.56,0-211.4,109.59-211.4,244.29,0,6.76.24,13.46.71,20.08.26,3.79.6,7.56,1.02,11.3h12.58c-.45-3.74-.8-7.5-1.08-11.3-.48-6.61-.74-13.32-.74-20.08,0-127.81,89.23-231.81,198.92-231.81,25.5,0,49.88,5.61,72.3,15.85.15.06.32.14.47.22.17.06.32.14.48.22v-13.63c-.17-.08-.32-.14-.48-.2Z"/>
    <g>
      <path class="st1" d="M560.61,299.59s56.01-4.88,65.78,37.34l.89,5.77s-59.21-18.17-67.17-41.56c0,0-.79-1.16.5-1.55Z"/>
      <path class="st6" d="M615.59,366.64c-9.14,0-20.78-1.82-31.93-8.77-17.46-10.88-28.67-31.09-33.32-60.07l-.76-4.72,4.76-.43c1.76-.16,43.3-3.66,66.69,19.74,11.69,11.7,16.67,27.91,14.8,48.18l-.28,2.98-2.86.88c-.54.17-7.42,2.21-17.1,2.21ZM560.04,301.34c4.63,23.65,14.15,40.1,28.35,48.95,15.35,9.56,32.17,7.6,38.78,6.29.86-16-3.32-28.72-12.43-37.86-16.07-16.11-43.57-17.52-54.7-17.38Z"/>
      <path class="st10" d="M629.43,356.33s-57.71,27.95-69.32-55.2c0,0,70.08,5.92,69.32,55.2Z"/>
    </g>
    <g>
      <path class="st1" d="M663.13,230.68s36.75,46.5,5.23,79.57l-4.56,4.12s-18.3-62.67-2.32-83.24c0,0,.57-1.37,1.65-.45Z"/>
      <path class="st6" d="M635.94,317.95c-5.3-8.05-10.43-19.35-10.78-33.2-.54-21.68,10.77-43.26,33.59-64.15l3.72-3.4,3.14,3.94c1.16,1.45,28.31,36.01,21.25,70.17-3.53,17.07-14.92,30.85-33.86,40.95l-2.79,1.48-2.43-2.01c-.46-.38-6.25-5.26-11.85-13.78ZM661.25,231.19c-18.15,17.77-27.12,35.7-26.68,53.33.47,19.06,11.94,32.73,16.93,37.8,14.58-8.51,23.37-19.56,26.14-32.88,4.87-23.48-9.81-48.52-16.39-58.24Z"/>
      <path class="st10" d="M653.03,324.17s-58.05-34.63,8.45-93.03c0,0,35.39,65.15-8.45,93.03Z"/>
    </g>
    <path class="st10" d="M529.86,515s2.36,10.18-8.79,15.79l41.93,1.19,25.4-9.82s.65-6.51-10.75-7.16l-48.63-1.79.84,1.79Z"/>
    <path class="st6" d="M582.32,319.89s44.94,16.67,66,60.55c0,0-6.3-79,9.12-117.43v121.36s31.91-47.54,69.69-59.05c0,0-59.27,46.25-67.52,82.5l-2.17,33.43s18.24-25.19,46.68-33.87l-44.5,45.73s-11.95,36.07-43.53,59.76c0,0-18.72,15.33-62.19,23.15l-15.31-5.21,49.34-12.62s45.32-23.53,56.12-57.07c0,0,7.11-34.3,2.77-61.6,0,0-10.85-41.19-64.48-79.62Z"/>
    <g>
      <path class="st6" d="M727.67,466.27l1.19,16.45s-63.61,14.13-74.57,49.58l-26.2-.21s30.76-35.68,56.49-49.48c0,0,22.14-12.04,43.09-16.34Z"/>
      <g>
        <path class="st6" d="M682.97,531.6h.77s44.03.7,44.03.7l.68-30.86v-.66c-8.57,1.76-30.38,8.29-45.48,30.82Z"/>
        <path class="st10" d="M724.6,458.76c.4-.05-2.52-15.24-2.52-15.24,0,0-32.56,3.81-56.01,21.2,0,0-5.29,5.88-9.61,17.06,0,0-3.74,12.09-25.56,31.3,0,0-12.92,12.04-24.1,16.89l24.37-.44s16.99-19.05,22.69-25.18c0,0,10.04-13.58,15.58-20.54,0,0,15.69-15.07,34.08-20.76,0,0,10.04-2.87,21.09-4.31Z"/>
      </g>
    </g>
    <path class="st10" d="M437.14,508.49s7.16-10.26,24.91-9.93c0,0-44.94-49.4-103.34-53.47l-5.21,13.85s57.42,1.74,83.64,49.55Z"/>
    <path class="st5" d="M421.34,531.99l9.01-18.53c-28.66-42.42-76.85-46.81-76.85-46.81-2.7,8.8-3.59,19.13-3.59,28.98,8.61,3.15,33.44,13.9,49.13,37.45h12.37c-9.12-28.33-49.82-49.17-49.82-49.17,47.71,12.7,59.76,48.09,59.76,48.09Z"/>
    <path class="st6" d="M349.91,495.63c0,.45,0,.91,0,1.36.16,19.12,3.59,36.09,3.59,36.09h45.54c-15.69-23.55-40.51-34.3-49.13-37.45Z"/>
    <path class="st6" d="M460.51,358.87l-9.93-2.35c6.82-28.79,17.39-44.49,17.84-45.14l.25-.34c17.47-21.56,34.92-14.93,35.65-14.63l.21.09c22.53,10.17,38.83,4.44,39.48,4.19v9.06c-.79.33-16.83,8.1-43.51-3.88-.88-.29-11.59-3.45-23.74,11.41-1.05,1.62-10.23,16.24-16.24,41.6Z"/>
    <path class="st10" d="M534.99,318.15s-20.68,2.44-35.66-7.82c0,0-12.05-1.3-17.1,12.21l-11.07,27.52s53.54-4.56,72.12-4.56l-8.29-27.35Z"/>
    <rect class="st10" x="504.57" y="488.46" width="56.69" height="15.85"/>
    <path class="st4" d="M544,315.49s7.76,25.05,11.81,28.2h-24.81l-.24-25.4s8.96-.72,13.24-2.8Z"/>
    <path class="st10" d="M562.69,353.09s16.72,13.76,22.79,17.04c0,0-99.49-4.43-135.8,8.76l-46.08,12.86s41.74-29.74,116.63-35.6l23.05-1.63,2.35-4.45s10.24-1.22,17.06,3.02Z"/>
    <g>
      <path class="st10" d="M445.69,409.5s-10.58,8.22-14.49,18.07c0,0-5.14,15.39,11.64,18.15,0,0,5.62,1.38,5.62-7.25l-2.77-28.98Z"/>
      <path class="st10" d="M617.89,409.5s10.58,8.22,14.49,18.07c0,0,5.14,15.39-11.64,18.15,0,0-5.62,1.38-5.62-7.25l2.77-28.98Z"/>
      <path class="st6" d="M638.55,403.37s-7.17-20.41-15.74-26.61c0,0-27.68-.97-39.18-7.59,0,0-95.53-9.67-146.17,8.09,0,0-27.51,6.19-37.77,13.35,0,0-4.57-2.4,6.12-7.72,0,0,41.58-24.36,88.15-29.58,0,0,37.54-6.76,69.21.33,0,0-5.62-6.52-7.91-10.96,0,0-77.15-1.7-117.75,15,0,0-27.56,8.98-46.94,26.4,0,0-11.99,15.96,2.92,27.27,0,0,11.35,9.69,29.81,13.16,0,0-3.27,13.9,4,21.06,0,0,6.73,7.17,15.69,6.3,0,0,0,20.14,20.84,32.83,0,0,16.45,10.1,43.8,6.52v-8.09s-40.38,3.2-48.52-15.36c0,0-6.4-10.48-7.05-19.82l-.43-48.47s.24-18.1,12.05-18.42c0,0,100.62-11.91,138.83,2.84,0,0,7.37,2.93,7.37,17.26v49.91s2.21,20.11-29.63,30.7c0,0-10.83,1.33-21.17,1.35v9.46s31.43,2.86,46.41-12.93c0,0,9.82-5.98,14.16-28.12,0,0,14.87.98,17.49-14.76,0,0,3.47-16.39,1.4-33.43ZM442.83,443.09s-8.79,1.75-10.64-8.67v-17.95c0-2.51.75-5.03,2.35-6.98,1.67-2.03,4.34-3.64,8.29-1.89v35.48ZM629.44,434.41c-1.85,10.42-10.64,8.67-10.64,8.67v-35.48c3.95-1.75,6.62-.14,8.29,1.89,1.59,1.95,2.35,4.46,2.35,6.98v17.95Z"/>
    </g>
    <g>
      <path class="st6" d="M485.37,393.93h91.78c9.74,0,17.64,7.91,17.64,17.64v37c0,9.74-7.91,17.64-17.64,17.64h-91.78c-11.08,0-20.07-8.99-20.07-20.07v-32.14c0-11.08,8.99-20.07,20.07-20.07Z"/>
      <path class="st10" d="M531.24,456.01c-8.33,0-16.82-3.57-25.29-10.64-1.62-1.35-1.84-3.77-.49-5.39,1.35-1.62,3.77-1.84,5.39-.49,7.88,6.58,15.52,9.52,22.71,8.73,9.42-1.03,14.95-8.06,15.01-8.13,1.29-1.67,3.7-1.98,5.37-.69,1.67,1.29,1.98,3.69.69,5.37-.31.39-7.61,9.68-20.23,11.06-1.05.11-2.1.17-3.16.17Z"/>
      <path class="st10" d="M552.14,429.56s-.02,0-.04,0c-1.76-.02-3.17-1.45-3.15-3.21.05-5.89,3.22-17.15,14.88-17.6,2.17-.17,12.94-.11,16.18,16.24.34,1.73-.78,3.41-2.51,3.75-1.73.34-3.41-.78-3.75-2.51-2.32-11.68-8.62-11.23-9.33-11.14l-.34.03c-8.36.31-8.74,10.16-8.76,11.29-.03,1.74-1.45,3.15-3.19,3.15Z"/>
      <path class="st10" d="M485.34,429.56s-.02,0-.04,0c-1.76-.02-3.17-1.45-3.15-3.21.05-5.89,3.22-17.15,14.88-17.6,2.17-.17,12.94-.11,16.18,16.24.34,1.73-.78,3.41-2.51,3.75-1.72.34-3.41-.78-3.75-2.51-2.32-11.68-8.62-11.23-9.33-11.14l-.34.03c-8.36.31-8.74,10.16-8.76,11.29-.03,1.74-1.45,3.15-3.19,3.15Z"/>
    </g>
    <path class="st6" d="M598.55,515.71l-6.48-7.38c-9.82-10.66-25.98-8.36-25.98-8.36v-16.83h-66.38v16.83s-16.16-2.31-25.98,8.36c0,0-19.51-6.51-34.27,8.68,0,0-6.73,7.82-9.12,14.98h10.64s8.9-19,26.27-16.28c0,0-3.26,9.99-1.52,16.28h9.12s-3.69-19.76,20.19-24.53h75.71c23.88,4.78,20.19,24.53,20.19,24.53h9.12c1.74-6.3-1.52-16.28-1.52-16.28ZM554.8,500.95h-43.8v-10.53h43.8v10.53Z"/>
    <path class="st10" d="M491.36,512.45l38.7.8s5.7,13.42-9.82,19.93l-41.25-1.19s4.02-15.09,12.37-19.54Z"/>
    <rect class="st8" x="232.49" y="529.38" width="620.63" height="11.3"/>
    <path class="st3" d="M720.8,706.32h-99.95l-2.93,6.3-15.52-3.15-9.12,10.64,3.91,15.2-17.8,11.4-10.31-10.2-15.41,5.54-4.12,14.65h-19.21l-4.12-14.65-15.41-5.54-10.31,10.2-17.8-11.4,3.91-15.2-9.12-10.64-15.52,3.15-2.93-6.3h-96.17c54.75,51.88,113.75,77.91,175.61,77.44,88.57-.71,158.79-56.26,182.36-77.44Z"/>
    <path class="st6" d="M351.36,697.85h-35.2l7.6,8.47h26.26c-1.2-1.19-2.41-2.38-3.61-3.6l4.94-4.87Z"/>
    <path class="st6" d="M763.7,697.85h-169.85c-15.61,27-41.7,31.1-53.93,31.44-12.22-.34-38.31-4.44-53.93-31.44h-131.83c2.88,2.89,5.76,5.72,8.66,8.47h96.17l2.93,6.3,15.52-3.15,9.12,10.64-3.91,15.2,17.8,11.4,10.31-10.2,15.41,5.54,4.12,14.65h19.21l4.12-14.65,15.41-5.54,10.31,10.2,17.8-11.4-3.91-15.2,9.12-10.64,15.52,3.15,2.93-6.3h99.95c5.41-4.86,8.37-7.92,8.52-8.07l6.46,6.16c-.14.14-.78.81-1.89,1.91h22.22l7.6-8.47Z"/>
    <path class="st10" d="M539.93,729.3c12.22-.34,38.31-4.44,53.93-31.44h-18.38s-9.44,17.58-35.55,18.02c-26.11-.43-35.55-18.02-35.55-18.02h-18.38c15.61,27,41.7,31.1,53.93,31.44Z"/>
    <path class="st6" d="M538.44,783.76c-61.86.47-120.86-25.56-175.61-77.44h-12.81c57.8,57.31,120.58,86.38,186.69,86.38.6,0,1.21,0,1.81,0,58.93-.47,109.42-24.44,141.39-44.47,29.06-18.2,48.12-36.11,53.98-41.9h-13.09c-23.57,21.18-93.79,76.73-182.36,77.44Z"/>
    <path class="st6" d="M354.17,697.85h-2.82l-4.94,4.87c1.2,1.22,2.4,2.4,3.61,3.6h12.81c-2.9-2.75-5.79-5.57-8.66-8.47Z"/>
    <path class="st6" d="M735.78,704.41l-6.46-6.16c-.15.16-3.11,3.21-8.52,8.07h13.09c1.11-1.1,1.76-1.77,1.89-1.91Z"/>
    <g>
      <path class="st6" d="M465.64,747.12s2.08-18.46-18.15-24.26c0,0,3.37,18.78,18.15,24.26Z"/>
      <path class="st6" d="M414.45,742.07s14.85,11.15,30.11-3.35c0,0-17.9-6.61-30.11,3.35Z"/>
      <path class="st6" d="M445.02,738.22s4.73-17.96-14.45-26.63c0,0,.62,19.07,14.45,26.63Z"/>
      <path class="st6" d="M404.44,723.5l-25.74-19.14-2.07,1.67s12.35,13.07,22.13,18.34c-1.74.48-3.48,1.16-5.17,2.12,0,0,12.73,13.53,30.24,1.84,0,0-9.09-5.27-19.4-4.83Z"/>
      <path class="st6" d="M424.38,727.91s7.73-16.89-9.7-28.7c0,0-2.64,18.9,9.7,28.7Z"/>
      <path class="st6" d="M411.19,720.26s-6.93-17.78-22.49-20.31c0,0,1.51,18.51,22.49,20.31Z"/>
      <path class="st6" d="M515.45,767.22s-37.62-18.26-50.27-19.45c.02-.03.05-.06.07-.09,0,0-18.66-3.96-29.31,7.67,0,0,14.11,7.68,26.55-4.57l50.52,19.38,2.44-2.93Z"/>
    </g>
    <path class="st6" d="M615.33,747.12s-2.08-18.46,18.15-24.26c0,0-3.37,18.78-18.15,24.26Z"/>
    <path class="st6" d="M666.52,742.07s-14.85,11.15-30.11-3.35c0,0,17.9-6.61,30.11,3.35Z"/>
    <path class="st6" d="M635.94,738.22s-4.73-17.96,14.45-26.63c0,0-.62,19.07-14.45,26.63Z"/>
    <path class="st6" d="M676.52,723.5l25.74-19.14,2.07,1.67s-12.35,13.07-22.13,18.34c1.74.48,3.48,1.16,5.17,2.12,0,0-12.73,13.53-30.24,1.84,0,0,9.09-5.27,19.4-4.83Z"/>
    <path class="st6" d="M656.59,727.91s-7.73-16.89,9.7-28.7c0,0,2.64,18.9-9.7,28.7Z"/>
    <path class="st6" d="M669.78,720.26s6.93-17.78,22.49-20.31c0,0-1.51,18.51-22.49,20.31Z"/>
    <path class="st6" d="M565.52,767.22s37.62-18.26,50.27-19.45c-.02-.03-.05-.06-.07-.09,0,0,18.66-3.96,29.31,7.67,0,0-14.11,7.68-26.55-4.57l-50.52,19.38-2.44-2.93Z"/>
    <g>
      <path class="st6" d="M309.04,628.11h-21.76l-5.21-12.56h-21.42l-4.99,12.56h-21.76l28-62.64h18.48l28.68,62.64ZM277.19,601.48l-5.55-18.31h-.57l-5.89,18.31h12.01Z"/>
      <path class="st6" d="M352.9,584.05c-4.42-8.4-22.33-6.46-22.33,1.77v21.5c0,9.82,23.46,9.73,23.46,0v-2.3h-12.81v-13.27h32.3v15.57c0,14.42-15.41,21.68-31.51,21.68s-31.74-7.25-31.74-21.68v-21.5c0-14.16,15.87-21.23,31.74-21.23,10.43,0,22.33,3.36,27.88,13.36l-17,6.1Z"/>
      <path class="st6" d="M407.08,608.2h-3.63v19.91h-20.52v-62.64h32.08c16.55,0,29.36,5.93,29.81,20.61,0,11.59-6.01,18.14-15.75,20.53l21.88,21.5h-25.28l-18.59-19.91ZM415.35,594.58c12.81,0,12.81-14.33,0-14.33h-11.9v14.33h11.9Z"/>
      <path class="st6" d="M453.55,586.08c0-14.42,16.55-21.5,33.21-21.5s33.32,7.17,33.32,21.5v21.41c0,14.33-16.55,21.5-33.21,21.5s-33.32-7.17-33.32-21.5v-21.41ZM473.84,607.49c0,4.6,6.57,6.81,13.03,6.81s12.92-2.3,12.92-6.81v-21.41c0-4.87-6.69-7.08-13.26-7.08s-12.69,2.48-12.69,7.08v21.41Z"/>
      <path class="st6" d="M530.85,565.47h20.29l16.89,30.61,17-30.61h20.29v62.64h-20.4l.11-18.05,1.25-12.65-.68-.09-10.54,21.5h-13.94l-10.77-21.5-.57.09,1.36,12.65v18.05h-20.29v-62.64Z"/>
      <path class="st6" d="M638.29,628.11h-20.29v-62.64h20.29v62.64Z"/>
      <path class="st6" d="M688.05,580.42v47.69h-20.52v-47.69h-21.31v-15.04h63.13v15.04h-21.31Z"/>
      <path class="st6" d="M741.43,608.2h-3.63v19.91h-20.52v-62.64h32.08c16.55,0,29.36,5.93,29.81,20.61,0,11.59-6.01,18.14-15.75,20.53l21.88,21.5h-25.28l-18.59-19.91ZM749.71,594.58c12.81,0,12.81-14.33,0-14.33h-11.9v14.33h11.9Z"/>
      <path class="st6" d="M858.63,628.11h-21.76l-5.21-12.56h-21.42l-4.99,12.56h-21.76l28-62.64h18.48l28.68,62.64ZM826.78,601.48l-5.55-18.31h-.57l-5.89,18.31h12.01Z"/>
    </g>
    <g>
      <path class="st6" d="M239.85,674.61v-10.11l-9.2-15.54h7.74l4.77,9.42,4.77-9.42h7.82l-9.23,15.54v10.11h-6.66Z"/>
      <path class="st6" d="M255.49,657.41c0-5.9,5.44-8.8,10.91-8.8s10.95,2.93,10.95,8.8v8.76c0,5.87-5.44,8.8-10.91,8.8s-10.95-2.93-10.95-8.8v-8.76ZM262.15,666.17c0,1.88,2.16,2.79,4.28,2.79s4.24-.94,4.24-2.79v-8.76c0-1.99-2.2-2.9-4.36-2.9s-4.17,1.01-4.17,2.9v8.76Z"/>
      <path class="st6" d="M287.46,666.03c0,4.13,7.52,4.13,7.56,0v-17.06h6.74v17.06c-.04,12.02-21.07,12.02-21.04,0v-17.06h6.74v17.06Z"/>
      <path class="st6" d="M313.63,666.46h-1.19v8.15h-6.74v-25.64h10.54c5.44,0,9.64,2.43,9.79,8.44,0,4.74-1.97,7.42-5.18,8.4l7.19,8.8h-8.3l-6.11-8.15ZM316.35,660.88c4.21,0,4.21-5.87,0-5.87h-3.91v5.87h3.91Z"/>
      <path class="st6" d="M346.38,648.97c5.29,0,10.24,2.61,10.24,8.58v8.62c0,5.9-4.95,8.47-10.24,8.44h-9.87v-25.64h9.87ZM346.61,668.52c2.27,0,3.31-1.12,3.31-2.79v-8c0-1.67-1.08-2.72-3.31-2.72h-3.39v13.51h3.39Z"/>
      <path class="st6" d="M366.85,674.61h-6.66v-25.64h6.66v25.64Z"/>
      <path class="st6" d="M384.39,656.57c-1.45-3.44-7.34-2.64-7.34.72v8.8c0,4.02,7.71,3.98,7.71,0v-.94h-4.21v-5.43h10.61v6.37c0,5.9-5.06,8.87-10.35,8.87s-10.42-2.97-10.42-8.87v-8.8c0-5.79,5.21-8.69,10.42-8.69,3.43,0,7.34,1.38,9.16,5.47l-5.58,2.5Z"/>
      <path class="st6" d="M400.91,674.61h-6.66v-25.64h6.66v25.64Z"/>
      <path class="st6" d="M417.25,655.09v19.52h-6.74v-19.52h-7v-6.16h20.74v6.16h-7Z"/>
      <path class="st6" d="M446.4,674.61h-7.15l-1.71-5.14h-7.04l-1.64,5.14h-7.15l9.2-25.64h6.07l9.42,25.64ZM435.94,663.71l-1.82-7.5h-.19l-1.94,7.5h3.95Z"/>
      <path class="st6" d="M448.14,648.97h6.7v19.23h10.72v6.41h-17.42v-25.64Z"/>
      <path class="st6" d="M495.61,674.61h-7.15l-1.71-5.14h-7.04l-1.64,5.14h-7.15l9.2-25.64h6.07l9.42,25.64ZM485.14,663.71l-1.82-7.5h-.19l-1.94,7.5h3.95Z"/>
      <path class="st6" d="M510.01,656.57c-1.45-3.44-7.34-2.64-7.34.72v8.8c0,4.02,7.71,3.98,7.71,0v-.94h-4.21v-5.43h10.61v6.37c0,5.9-5.06,8.87-10.35,8.87s-10.42-2.97-10.42-8.87v-8.8c0-5.79,5.21-8.69,10.42-8.69,3.43,0,7.34,1.38,9.16,5.47l-5.58,2.5Z"/>
      <path class="st6" d="M527.8,666.46h-1.19v8.15h-6.74v-25.64h10.54c5.44,0,9.64,2.43,9.79,8.44,0,4.74-1.97,7.42-5.18,8.4l7.19,8.8h-8.3l-6.11-8.15ZM530.52,660.88c4.21,0,4.21-5.87,0-5.87h-3.91v5.87h3.91Z"/>
      <path class="st6" d="M550.58,674.61h-6.66v-25.64h6.66v25.64Z"/>
      <path class="st6" d="M573.99,669.21c-2.2,4.17-6.18,5.76-9.49,5.76-5.18,0-10.39-2.93-10.39-8.76v-8.84c0-5.79,5.21-8.76,10.5-8.76,3.24,0,7.15,1.34,9.27,5.9l-5.44,2.14c-1.79-3.19-7.67-2.46-7.67.72v8.84c0,3.08,5.96,3.95,7.41.4l5.81,2.61Z"/>
      <path class="st6" d="M583,666.03c0,4.13,7.52,4.13,7.56,0v-17.06h6.74v17.06c-.04,12.02-21.07,12.02-21.04,0v-17.06h6.74v17.06Z"/>
      <path class="st6" d="M601.23,648.97h6.7v19.23h10.72v6.41h-17.42v-25.64Z"/>
      <path class="st6" d="M629.75,655.09v19.52h-6.74v-19.52h-7v-6.16h20.74v6.16h-7Z"/>
      <path class="st6" d="M645.94,666.03c0,4.13,7.52,4.13,7.56,0v-17.06h6.74v17.06c-.04,12.02-21.07,12.02-21.04,0v-17.06h6.74v17.06Z"/>
      <path class="st6" d="M672.11,666.46h-1.19v8.15h-6.74v-25.64h10.54c5.44,0,9.64,2.43,9.79,8.44,0,4.74-1.97,7.42-5.18,8.4l7.19,8.8h-8.3l-6.11-8.15ZM674.82,660.88c4.21,0,4.21-5.87,0-5.87h-3.91v5.87h3.91Z"/>
      <path class="st6" d="M710.6,674.61h-7.15l-1.71-5.14h-7.04l-1.64,5.14h-7.15l9.2-25.64h6.07l9.42,25.64ZM700.13,663.71l-1.82-7.5h-.19l-1.94,7.5h3.95Z"/>
      <path class="st6" d="M712.34,648.97h6.7v19.23h10.72v6.41h-17.42v-25.64Z"/>
      <path class="st6" d="M745.13,659.72h10.16v6.05h-10.16v8.84h-6.74v-25.64h18.35v6.16h-11.62v4.6Z"/>
      <path class="st6" d="M767.77,666.46h-1.19v8.15h-6.74v-25.64h10.54c5.44,0,9.64,2.43,9.79,8.44,0,4.74-1.97,7.42-5.18,8.4l7.19,8.8h-8.3l-6.11-8.15ZM770.48,660.88c4.21,0,4.21-5.87,0-5.87h-3.91v5.87h3.91Z"/>
      <path class="st6" d="M790.54,674.61h-6.66v-25.64h6.66v25.64Z"/>
      <path class="st6" d="M801.45,659.04h10.69v5.61h-10.69v3.84h11.62v6.12h-18.35v-25.64h18.35v6.09h-11.62v3.98Z"/>
      <path class="st6" d="M816.6,648.97h6.33l6.37,10.94,2.23,5.14.19-.04s-.71-4.42-.74-4.42v-11.63h6.63v25.64h-6.74l-5.96-10.11-2.31-5.14-.19.04.86,4.96v10.25h-6.66v-25.64Z"/>
      <path class="st6" d="M851.63,648.97c5.29,0,10.24,2.61,10.24,8.58v8.62c0,5.9-4.95,8.47-10.24,8.44h-9.87v-25.64h9.87ZM851.85,668.52c2.27,0,3.31-1.12,3.31-2.79v-8c0-1.67-1.08-2.72-3.31-2.72h-3.39v13.51h3.39Z"/>
    </g>
  </g>
</svg>